<?xml version="1.0" encoding="utf-8"?>
<!-- Generator: Adobe Illustrator 21.0.0, SVG Export Plug-In . SVG Version: 6.00 Build 0)  -->
<svg version="1.1" id="Layer_1" xmlns="http://www.w3.org/2000/svg" xmlns:xlink="http://www.w3.org/1999/xlink" x="0px" y="0px"
	 viewBox="0 0 38 61" style="enable-background:new 0 0 38 61;" xml:space="preserve">
<style type="text/css">
	.st0{fill:#EE4523;}
	.st1{opacity:0.54;fill:#A1A0A0;enable-background:new    ;}
	.st2{fill:#5E5E5E;}
	.st3{fill:none;stroke:#EE4523;stroke-miterlimit:10;}
</style>
<path class="st0" d="M16.6,25c-2,0-4-0.8-5.5-2.3s-2.3-3.4-2.3-5.5l0,0c0-2,0.8-4,2.3-5.5s3.4-2.3,5.5-2.3h6.3
	c0.4,0,0.8,0.4,0.8,0.8c0,0.4-0.4,0.8-0.8,0.8h-6.3c-3.2,0-6.1,2.9-6.1,6.1l0,0c0,3.2,2.9,6.1,6.1,6.1h6.3c0.4,0,0.8,0.4,0.8,0.8
	c0,0.4-0.4,0.8-0.8,0.8C22.9,24.8,16.6,25,16.6,25z"/>
<path class="st0" d="M22,21.7v-8.9c0-0.4,0.4-0.8,0.8-0.8c0.4,0,0.8,0.4,0.8,0.8v8.9c0,0.4-0.4,0.8-0.8,0.8
	C22.4,22.5,22,22.1,22,21.7z"/>
<path class="st0" d="M19,20.4v-3.3h1.6v3.3c0,0.4-0.4,0.8-0.8,0.8C19.4,21.3,19,20.9,19,20.4z"/>
<path class="st0" d="M25.5,25c-0.4,0-0.8-0.4-0.8-0.8v-14c0-0.4,0.4-0.8,0.8-0.8c0.4,0,0.8,0.4,0.8,0.8v13.9
	C26.3,24.6,25.9,25,25.5,25z"/>
<path class="st0" d="M19,17.2c0-1.3-1.1-2.5-2.4-2.5s-2.5,1.1-2.5,2.5c0,1.3,1.2,2.5,2.5,2.4C17.9,19.7,19.1,18.5,19,17.2z
	 M16.6,13.1c2.2,0,4,1.9,4,4c0,2.2-1.9,4-4,4s-4-1.9-4-4C12.5,15,14.3,13.1,16.6,13.1z"/>
<ellipse class="st1" cx="18.7" cy="46.2" rx="10.4" ry="2.8"/>
<path class="st0" d="M11.5,32.6H26l-6.5,12c-0.2,0.4-0.9,0.4-1.1,0L11.5,32.6z"/>
<path class="st2" d="M25,30.3C25,30.3,25,30.3,25,30.3c0,0,0.1,0,0.1,0c0.2,0,0.3,0.2,0.3,0.3c0,0.1-0.1,0.2-0.2,0.3h0
	c-0.3,0.1-0.7,0.2-1,0.2c-0.7,0-1.4-0.3-1.9-0.8v-1.2c0.3,0.8,1,1.4,1.9,1.4C24.5,30.5,24.7,30.4,25,30.3z M25,26.7
	c-0.2-0.1-0.5-0.2-0.8-0.2c-0.8,0-1.6,0.6-1.9,1.4v-1.2c0.5-0.5,1.2-0.8,1.9-0.8c0.4,0,0.7,0.1,1,0.2c0,0,0,0,0,0
	c0.1,0,0.2,0.2,0.2,0.3c0,0.2-0.2,0.3-0.3,0.3C25.1,26.7,25.1,26.7,25,26.7C25,26.7,25,26.7,25,26.7z M12.9,26.5v4.3
	c0,0.2-0.2,0.3-0.3,0.3l0,0c-0.2,0-0.3-0.2-0.3-0.3v-4.3H11c-0.2,0-0.3-0.1-0.3-0.3l0,0c0-0.2,0.2-0.3,0.3-0.3h4.7
	c-0.4,0.1-0.8,0.4-1.2,0.6H12.9z M16.4,25.9c0.8,0,1.5,0.4,2,0.9c0.4,0.5,0.6,1.1,0.6,1.7c0,0.7-0.2,1.3-0.6,1.7
	c-0.5,0.6-1.2,0.9-2,0.9c-1.4,0-2.6-1.2-2.6-2.6c0-0.8,0.4-1.5,0.9-2C15.2,26.1,15.8,25.9,16.4,25.9z M18.4,28.6v-0.2
	c0-1-1-1.9-2-1.9h-0.1c-1,0-1.9,1-1.9,2c0,1.1,0.9,2,2,2C17.4,30.5,18.4,29.6,18.4,28.6z M19,29.2v1.6c0,0.2-0.2,0.3-0.3,0.3l0,0
	c-0.2,0-0.3-0.2-0.3-0.3v-0.4c0,0,0,0,0.1-0.1C18.7,30,18.9,29.6,19,29.2z M22.2,25.9v4.9c0,0.2-0.2,0.3-0.3,0.3s-0.3-0.2-0.3-0.3
	v-4.3H21c-0.8,0-1.6,0.6-1.8,1.4c0,0,0,0.1,0,0.1c-0.1-0.5-0.3-1-0.6-1.3c0,0,0,0-0.1-0.1v-0.4c0-0.2,0.2-0.3,0.3-0.3l0,0
	c0.2,0,0.3,0.2,0.3,0.3v0.6c0,0,0.1-0.1,0.1-0.1c0.4-0.5,1.1-0.8,1.8-0.8H22.2z M22.4,28.2H24c0.2,0,0.3,0.2,0.3,0.3
	s-0.2,0.3-0.3,0.3h-1.6V28.2z"/>
<path class="st3" d="M6.4,17.7c0,6.8,10.7,27,12.3,27c1.3,0,12.3-20.2,12.3-27S25.5,5.4,18.7,5.4S6.4,10.9,6.4,17.7z"/>
</svg>
