<?xml version="1.0" encoding="utf-8"?>
<!-- Generator: Adobe Illustrator 21.0.0, SVG Export Plug-In . SVG Version: 6.00 Build 0)  -->
<svg version="1.1" id="Layer_1" xmlns="http://www.w3.org/2000/svg" xmlns:xlink="http://www.w3.org/1999/xlink" x="0px" y="0px"
	 viewBox="0 0 100 30" style="enable-background:new 0 0 100 30;" xml:space="preserve">
<style type="text/css">
	.st0{fill:#F24200;}
	.st1{fill:#5E5E5E;}
</style>
<path class="st0" d="M14.3,27.2c-3.1,0-6.2-1.3-8.4-3.5s-3.5-5.3-3.5-8.4l0,0c0-3.1,1.3-6.2,3.5-8.4s5.3-3.5,8.4-3.5h9.6
	c0.7,0,1.3,0.6,1.3,1.2c0,0.7-0.6,1.3-1.3,1.2h-9.6c-4.9,0-9.4,4.4-9.3,9.4l0,0c0,4.9,4.4,9.4,9.3,9.4h9.6c0.7,0,1.3,0.6,1.3,1.2
	c0,0.7-0.6,1.3-1.3,1.2h-9.6V27.2z"/>
<path class="st0" d="M22.7,22.2V8.5c0-0.7,0.6-1.3,1.2-1.2c0.7,0,1.3,0.6,1.2,1.2v13.7c0,0.7-0.6,1.3-1.2,1.2
	C23.2,23.5,22.6,22.9,22.7,22.2z"/>
<path class="st0" d="M18,20.3v-5h2.5v5c0,0.7-0.6,1.3-1.2,1.2C18.6,21.6,18,21,18,20.3z"/>
<path class="st0" d="M28,27.2c-0.7,0-1.3-0.6-1.3-1.2V4.7c0-0.7,0.6-1.3,1.3-1.2c0.7,0,1.2,0.6,1.2,1.2v21.2
	C29.2,26.6,28.6,27.2,28,27.2z"/>
<path class="st0" d="M18,15.3c0-2-1.7-3.8-3.7-3.8s-3.8,1.7-3.8,3.8c0,2,1.8,3.8,3.8,3.7C16.3,19.1,18.1,17.3,18,15.3z M14.3,9.1
	c3.4,0,6.2,2.8,6.2,6.2s-2.8,6.2-6.2,6.2s-6.2-2.8-6.2-6.2C8,11.9,10.8,9.1,14.3,9.1z"/>
<path class="st1" d="M96.3,23.5C96.3,23.5,96.4,23.5,96.3,23.5c0.2-0.1,0.4-0.1,0.6-0.1c0.8,0,1.5,0.7,1.5,1.5
	c0,0.6-0.4,1.1-0.9,1.3h-0.1c-1.4,0.6-3,0.9-4.6,0.9c-3.3,0-6.3-1.4-8.5-3.6V18c1.2,3.5,4.7,6.2,8.5,6.1C94,24.3,95.2,24,96.3,23.5z
	 M96.3,7.1c-1.1-0.5-2.3-0.7-3.5-0.7C89,6.3,85.5,9,84.3,12.5V7.1c2.2-2.2,5.2-3.6,8.5-3.6c1.6,0,3.2,0.3,4.6,0.9c0,0,0,0,0.1,0
	c0.5,0.2,0.9,0.7,0.9,1.3c0,0.8-0.7,1.5-1.5,1.5C96.7,7.3,96.6,7.2,96.3,7.1C96.4,7.1,96.3,7.1,96.3,7.1z M41.6,6.4v19.3
	c0,0.8-0.7,1.5-1.5,1.5l0,0c-0.8,0-1.4-0.7-1.4-1.5V6.4h-5.5c-0.8,0-1.5-0.6-1.5-1.4l0,0c0-0.8,0.7-1.5,1.5-1.5h21.2
	c-2,0.5-3.7,1.6-5.2,2.9H41.6z M57.6,3.5c3.5,0,6.7,1.6,8.9,4c1.8,2.1,2.9,4.8,2.9,7.8s-1.1,5.7-2.9,7.8c-2.2,2.5-5.4,4.1-8.9,4.1
	c-6.5,0-11.8-5.3-11.8-11.8c0-3.6,1.6-6.7,4-8.9C51.9,4.6,54.6,3.5,57.6,3.5z M66.5,15.7V15c-0.1-4.6-4.3-8.7-8.9-8.6h-0.4
	c-4.6,0.1-8.7,4.3-8.6,8.9c-0.1,4.8,4.2,9,8.9,8.9C62.2,24.4,66.4,20.3,66.5,15.7z M69.4,18.6v7.1c0,0.8-0.7,1.5-1.5,1.5l0,0
	c-0.8,0-1.5-0.7-1.5-1.5v-1.9c0.1-0.1,0.2-0.2,0.3-0.4C68,22,68.9,20.3,69.4,18.6z M83.9,3.5v22.2c0,0.8-0.7,1.5-1.5,1.5
	s-1.5-0.7-1.5-1.5V6.4h-2.7C74.5,6.3,71,9,69.9,12.5c-0.1,0.2-0.1,0.4-0.2,0.6c-0.4-2.2-1.4-4.3-2.8-5.9c-0.1-0.1-0.2-0.2-0.3-0.4V5
	c0-0.8,0.7-1.5,1.5-1.5l0,0c0.8,0,1.5,0.7,1.5,1.5v2.6c0.1-0.1,0.3-0.3,0.4-0.5c2-2.2,5-3.6,8.3-3.6H83.9z M84.4,13.9h7.4
	c0.8,0,1.5,0.7,1.5,1.5c0,0.8-0.7,1.5-1.5,1.5h-7.4V13.9z"/>
</svg>
